<?xml version="1.0" encoding="utf-8"?>
<svg clip-rule="evenodd" stroke-linejoin="round" stroke-miterlimit="1.414" viewBox="0 0 24 24" xmlns="http://www.w3.org/2000/svg">
  <path d="M19 20H4a2 2 0 0 1-2-2V6c0-1.11.89-2 2-2h6l2 2h7c1.097 0 2 .903 2 2H4v10l2.14-8h17.07l-2.28 8.5c-.23.87-1.01 1.5-1.93 1.5z" style="fill: rgb(198, 48, 43);"/>
  <path d="M 22.973 20.221 C 22.117 20.666 17.696 22.485 16.753 22.975 C 15.813 23.467 15.289 23.461 14.545 23.105 C 13.801 22.751 9.093 20.849 8.245 20.445 C 7.822 20.241 7.6 20.07 7.6 19.909 L 7.6 18.293 C 7.6 18.293 13.728 16.958 14.717 16.604 C 15.705 16.249 16.049 16.236 16.892 16.544 C 17.733 16.853 22.767 17.761 23.599 18.065 L 23.599 19.66 C 23.599 19.82 23.407 19.994 22.973 20.221" style="fill: rgb(255, 188, 188);"/>
  <path d="M 22.973 18.613 C 22.117 19.058 17.696 20.877 16.753 21.369 C 15.813 21.86 15.289 21.853 14.545 21.497 C 13.801 21.144 9.093 19.241 8.245 18.837 C 7.398 18.432 7.382 18.153 8.214 17.826 C 9.045 17.501 13.728 15.664 14.717 15.309 C 15.705 14.953 16.049 14.941 16.892 15.249 C 17.733 15.557 22.129 17.308 22.961 17.613 C 23.793 17.917 23.825 18.169 22.973 18.613" style="fill: rgb(252, 179, 179);"/>
  <path d="M 22.973 17.605 C 22.117 18.049 17.696 19.869 16.753 20.36 C 15.813 20.85 15.289 20.845 14.545 20.489 C 13.801 20.134 9.093 18.233 8.245 17.828 C 7.822 17.625 7.6 17.454 7.6 17.293 L 7.6 15.676 C 7.6 15.676 13.728 14.341 14.717 13.987 C 15.705 13.632 16.049 13.619 16.892 13.927 C 17.733 14.236 22.767 15.144 23.599 15.449 L 23.599 17.042 C 23.599 17.202 23.407 17.378 22.973 17.605" style="fill: rgb(255, 188, 188);"/>
  <path d="M 22.973 15.997 C 22.117 16.441 17.696 18.261 16.753 18.752 C 15.813 19.242 15.289 19.237 14.545 18.881 C 13.801 18.526 9.093 16.625 8.245 16.22 C 7.398 15.815 7.382 15.536 8.214 15.209 C 9.045 14.884 13.728 13.047 14.717 12.692 C 15.705 12.337 16.049 12.325 16.892 12.633 C 17.733 12.941 22.129 14.691 22.961 14.996 C 23.793 15.301 23.825 15.552 22.973 15.997" style="fill: rgb(252, 179, 179);"/>
  <path d="M 22.973 14.891 C 22.117 15.336 17.696 17.154 16.753 17.645 C 15.813 18.137 15.289 18.132 14.545 17.777 C 13.801 17.421 9.093 15.52 8.245 15.113 C 7.822 14.912 7.6 14.741 7.6 14.58 L 7.6 12.961 C 7.6 12.961 13.728 11.628 14.717 11.273 C 15.705 10.917 16.049 10.905 16.892 11.213 C 17.733 11.521 22.767 12.429 23.599 12.735 L 23.599 14.329 C 23.599 14.489 23.407 14.665 22.973 14.891" style="fill: rgb(255, 188, 188);"/>
  <path d="M 22.973 13.284 C 22.117 13.729 17.696 15.547 16.753 16.037 C 15.813 16.529 15.289 16.524 14.545 16.169 C 13.801 15.813 9.093 13.912 8.245 13.505 C 7.398 13.101 7.382 12.821 8.214 12.496 C 9.045 12.169 13.728 10.333 14.717 9.979 C 15.705 9.624 16.049 9.611 16.892 9.919 C 17.733 10.228 22.129 11.977 22.961 12.283 C 23.793 12.587 23.825 12.839 22.973 13.284" style="fill: rgb(252, 179, 179);"/>
  <path d="M 17.553 11.709 L 16.18 11.853 L 15.872 12.593 L 15.373 11.767 L 13.785 11.624 L 14.969 11.197 L 14.613 10.541 L 15.725 10.975 L 16.769 10.632 L 16.488 11.311 L 17.553 11.709 M 15.789 15.305 L 13.221 14.24 L 16.901 13.676 L 15.789 15.305 M 12.229 12.121 C 13.316 12.121 14.196 12.463 14.196 12.884 C 14.196 13.305 13.316 13.647 12.229 13.647 C 11.144 13.647 10.264 13.305 10.264 12.884 C 10.264 12.463 11.144 12.121 12.229 12.121" style="fill: rgb(198, 48, 43);"/>
  <path d="M 19.181 11.913 L 21.357 12.773 L 19.181 13.633 L 19.181 11.913" style="fill: rgb(167, 40, 36);"/>
  <path d="M 16.772 12.865 L 19.181 11.913 L 19.181 13.633 L 18.945 13.725 L 16.772 12.865" style="fill: rgb(198, 48, 43);"/>
</svg>