<?xml version="1.0" encoding="utf-8"?>
<svg clip-rule="evenodd" fill-rule="evenodd" stroke-linejoin="round" stroke-miterlimit="1.414" viewBox="0 0 24 24" xmlns="http://www.w3.org/2000/svg">
  <path d="M10 4H4c-1.11 0-2 .89-2 2v12c0 1.097.903 2 2 2h16c1.097 0 2-.903 2-2V8a2 2 0 0 0-2-2h-8l-2-2z" fill-rule="nonzero" style="fill: rgb(198, 48, 43);"/>
  <path d="M 22.973 20.221 C 22.119 20.667 17.696 22.485 16.753 22.976 C 15.813 23.468 15.289 23.463 14.545 23.107 C 13.801 22.752 9.095 20.849 8.247 20.445 C 7.823 20.241 7.6 20.071 7.6 19.909 L 7.6 18.293 C 7.6 18.293 13.728 16.959 14.717 16.604 C 15.707 16.249 16.049 16.236 16.892 16.544 C 17.733 16.853 22.768 17.761 23.6 18.065 L 23.6 19.66 C 23.6 19.82 23.408 19.995 22.973 20.221" style="fill: rgb(255, 188, 188);"/>
  <path d="M 22.973 18.613 C 22.119 19.059 17.696 20.877 16.753 21.369 C 15.813 21.86 15.289 21.855 14.545 21.499 C 13.801 21.144 9.095 19.241 8.247 18.837 C 7.399 18.432 7.381 18.153 8.213 17.827 C 9.047 17.501 13.728 15.664 14.717 15.309 C 15.707 14.953 16.049 14.941 16.892 15.249 C 17.733 15.557 22.129 17.308 22.961 17.613 C 23.795 17.917 23.827 18.169 22.973 18.613" style="fill: rgb(252, 179, 179);"/>
  <path d="M 22.973 17.605 C 22.119 18.049 17.696 19.869 16.753 20.36 C 15.813 20.851 15.289 20.845 14.545 20.489 C 13.801 20.135 9.095 18.233 8.247 17.828 C 7.823 17.625 7.6 17.455 7.6 17.293 L 7.6 15.676 C 7.6 15.676 13.728 14.341 14.717 13.987 C 15.707 13.632 16.049 13.619 16.892 13.927 C 17.733 14.236 22.768 15.144 23.6 15.449 L 23.6 17.043 C 23.6 17.203 23.408 17.379 22.973 17.605" style="fill: rgb(255, 188, 188);"/>
  <path d="M 22.973 15.997 C 22.119 16.441 17.696 18.261 16.753 18.752 C 15.813 19.243 15.289 19.237 14.545 18.881 C 13.801 18.527 9.095 16.625 8.247 16.22 C 7.399 15.815 7.381 15.536 8.213 15.209 C 9.047 14.884 13.728 13.047 14.717 12.692 C 15.707 12.337 16.049 12.325 16.892 12.633 C 17.733 12.941 22.129 14.691 22.961 14.996 C 23.795 15.301 23.827 15.552 22.973 15.997" style="fill: rgb(252, 179, 179);"/>
  <path d="M 22.973 14.891 C 22.119 15.336 17.696 17.155 16.753 17.645 C 15.813 18.137 15.289 18.132 14.545 17.777 C 13.801 17.421 9.095 15.52 8.247 15.113 C 7.823 14.912 7.6 14.741 7.6 14.58 L 7.6 12.961 C 7.6 12.961 13.728 11.628 14.717 11.273 C 15.707 10.917 16.049 10.905 16.892 11.213 C 17.733 11.521 22.768 12.429 23.6 12.735 L 23.6 14.329 C 23.6 14.489 23.408 14.665 22.973 14.891" style="fill: rgb(255, 188, 188);"/>
  <path d="M 22.973 13.284 C 22.119 13.729 17.696 15.547 16.753 16.037 C 15.813 16.529 15.289 16.524 14.545 16.169 C 13.801 15.813 9.095 13.912 8.247 13.505 C 7.399 13.101 7.381 12.821 8.213 12.496 C 9.047 12.169 13.728 10.333 14.717 9.979 C 15.707 9.624 16.049 9.611 16.892 9.919 C 17.733 10.228 22.129 11.977 22.961 12.283 C 23.795 12.587 23.827 12.839 22.973 13.284" style="fill: rgb(252, 179, 179);"/>
  <path d="M 17.555 11.709 L 16.18 11.853 L 15.872 12.593 L 15.373 11.767 L 13.785 11.624 L 14.971 11.197 L 14.615 10.541 L 15.725 10.975 L 16.771 10.632 L 16.488 11.311 L 17.555 11.709 M 15.789 15.305 L 13.221 14.24 L 16.901 13.676 L 15.789 15.305 M 12.229 12.121 C 13.316 12.121 14.196 12.463 14.196 12.884 C 14.196 13.305 13.316 13.647 12.229 13.647 C 11.144 13.647 10.264 13.305 10.264 12.884 C 10.264 12.463 11.144 12.121 12.229 12.121" style="fill: rgb(198, 48, 43);"/>
  <path d="M 19.181 11.913 L 21.357 12.773 L 19.183 13.633 L 19.181 11.913" style="fill: rgb(167, 40, 36);"/>
  <path d="M 16.772 12.865 L 19.181 11.913 L 19.183 13.633 L 18.947 13.725 L 16.772 12.865" style="fill: rgb(198, 48, 43);"/>
</svg>